<svg xmlns="http://www.w3.org/2000/svg" width="110" height="110" viewBox="0 0 110 110" fill="none"><circle cx="55" cy="55" r="55" fill="#7F54B3"></circle><path fill-rule="evenodd" clip-rule="evenodd" d="M83.5682 37H27.4035C23.8491 37 20.972 39.9707 21.0002 43.5771V65.5C21.0002 69.1348 23.8777 72.0771 27.432 72.0771H54.0333L66.1916 79L63.427 72.0771H83.5682C87.1228 72.0771 90 69.1348 90 65.5V43.5771C90 39.9424 87.1225 37 83.5682 37ZM27.2096 43.1787C26.4382 43.2344 25.8596 43.5127 25.474 44.042C25.0886 44.543 24.9234 45.1836 25.0335 45.9082C26.659 56.3506 28.1741 63.3965 29.5791 67.0449C30.13 68.3809 30.7637 69.0215 31.5075 68.9658C32.6646 68.8828 34.042 67.2676 35.6673 64.1211C36.5213 62.3389 37.8436 59.665 39.6342 56.1006C41.1217 61.3643 43.1603 65.3184 45.7223 67.9639C46.4386 68.7158 47.1823 69.0498 47.8986 68.9941C48.5322 68.9385 49.0281 68.6045 49.3587 67.9912C49.6342 67.4629 49.7443 66.8496 49.6892 66.1533C49.5239 63.6191 49.7719 60.083 50.4606 55.543C51.1768 50.8652 52.0583 47.4951 53.1327 45.4902C53.3531 45.0723 53.4358 44.6553 53.4082 44.1533C53.3531 43.5127 53.0776 42.9844 52.5542 42.5664C52.0308 42.1484 51.4523 41.9541 50.8187 42.0098C50.0197 42.0654 49.4137 42.4551 49.0005 43.2344C47.2924 46.3818 46.0802 51.4775 45.364 58.5508C44.3171 55.8779 43.4356 52.7314 42.7468 49.0273C42.4439 47.3838 41.7 46.6045 40.4879 46.6875C39.6615 46.7432 38.9727 47.3008 38.4218 48.3584L32.3888 59.9717C31.3969 55.9336 30.4602 51.0039 29.6062 45.1836C29.4134 43.7363 28.6145 43.0674 27.2096 43.1787ZM80.2689 45.1836C82.2248 45.6016 83.6848 46.6602 84.6765 48.4141C85.5581 49.918 86.0264 51.7285 85.9989 53.9004C85.9989 56.7686 85.2826 59.3867 83.8501 61.7812C82.1972 64.5664 80.0484 65.959 77.3763 65.959C76.908 65.959 76.4121 65.9033 75.8887 65.792C73.9329 65.374 72.4728 64.3154 71.481 62.5605C70.5995 61.0293 70.1587 59.1914 70.1587 57.0469C70.1587 54.1787 70.875 51.5615 72.3075 49.1943C73.988 46.4092 76.1367 45.0166 78.7813 45.0166C79.2497 45.0166 79.7455 45.0723 80.2689 45.1836ZM79.1118 60.25C80.1311 59.3311 80.8198 57.9658 81.2055 56.1279C81.3433 55.4873 81.3984 54.792 81.3984 54.0674C81.3984 53.2598 81.2331 52.3965 80.9025 51.5332C80.4893 50.4473 79.9384 49.8623 79.2772 49.7236C78.2854 49.5283 77.3212 50.085 76.4121 51.4502C75.6683 52.5078 75.2 53.6221 74.952 54.7637C74.8143 55.4043 74.7592 56.1006 74.7592 56.7969C74.7592 57.6045 74.9245 58.4678 75.2551 59.3311C75.6683 60.417 76.2193 61.002 76.8804 61.1406C77.5692 61.2803 78.313 60.9736 79.1118 60.25ZM63.0236 45.1836C64.9518 45.6016 66.4395 46.6602 67.4312 48.4141C68.3128 49.918 68.7535 51.7285 68.7535 53.9004C68.7535 56.7686 68.0373 59.3867 66.6048 61.7812C64.9518 64.5664 62.8031 65.959 60.1309 65.959C59.6626 65.959 59.1667 65.9033 58.6433 65.792C56.6875 65.374 55.2274 64.3154 54.2357 62.5605C53.3541 61.0293 52.9134 59.1914 52.9134 57.0469C52.9134 54.1787 53.6297 51.5615 55.0622 49.1943C56.7426 46.4092 58.8913 45.0166 61.536 45.0166C62.0043 45.0166 62.5001 45.0723 63.0236 45.1836ZM61.839 60.25C62.8582 59.3311 63.547 57.9658 63.9326 56.1279C64.0703 55.4873 64.153 54.792 64.1255 54.0674C64.1255 53.2598 63.9602 52.3965 63.6297 51.5332C63.2165 50.4473 62.6655 49.8623 62.0043 49.7236C61.0125 49.5283 60.0483 50.085 59.1392 51.4502C58.3954 52.5078 57.9271 53.6221 57.6792 54.7637C57.5414 55.4043 57.4863 56.1006 57.4863 56.7969C57.4863 57.6045 57.6516 58.4678 57.9822 59.3311C58.3954 60.417 58.9464 61.002 59.6075 61.1406C60.2963 61.2803 61.0401 60.9736 61.839 60.25Z" fill="white"></path></svg>