<svg xmlns="http://www.w3.org/2000/svg" width="110" height="110" viewBox="0 0 110 110" fill="none"><circle cx="55" cy="55" r="55" fill="#FEDE3A"></circle><path fill-rule="evenodd" clip-rule="evenodd" d="M80.7868 63.945C80.8173 64.0511 80.838 64.123 80.8469 64.1518C81.7745 64.1482 83.2364 65.2202 83.24 67.8119C83.24 70.3855 82.1716 73.302 81.9225 73.9481C78.0676 83.174 68.885 88.3103 57.9409 87.9855C47.7404 87.6787 39.0415 82.3005 35.2334 73.5221C32.9342 73.5257 30.5555 72.5079 28.7507 70.9125C26.8521 69.2268 25.6826 67.0503 25.448 64.7727C25.2637 63.1298 25.469 61.4666 26.0472 59.9179L23.9068 58.1095C14.1178 49.8473 44.7192 15.824 54.5155 24.3641C54.5624 24.4038 57.8434 27.6235 57.8507 27.6307L59.6662 26.8583C68.2533 23.2993 75.2197 25.0247 75.2305 30.6952C75.2341 33.6442 73.3571 37.0841 70.3432 40.2027C71.4369 41.2242 72.3068 42.7979 72.8121 44.6099C73.2344 45.9454 73.3066 47.3026 73.3463 48.1689C73.3761 48.931 73.4102 50.3345 73.433 51.2734C73.4462 51.8154 73.4556 52.2026 73.4582 52.2224L74.6674 52.5581C76.9703 53.2042 78.6126 54.0705 79.4139 54.9079C80.1331 55.6103 80.6043 56.5275 80.7567 57.5212C80.8902 58.2936 80.8722 59.6508 79.8579 61.1776L80.3777 62.5636C80.5582 63.1497 80.7065 63.6657 80.7868 63.945ZM35.0602 71.129C35.3988 71.1382 35.7374 71.1128 36.0708 71.0532C39.6479 70.4468 40.5863 66.5594 39.9944 62.7513C39.3266 58.4452 36.4174 56.9292 34.4393 56.8137C33.8907 56.7884 33.3781 56.8353 32.9594 56.9256C29.4293 57.633 27.4369 60.6362 27.8303 64.5344C28.184 68.0609 31.7539 71.0352 35.0602 71.129ZM27.0687 57.9796C28.3324 56.2003 30.2395 54.9833 32.3855 54.5866C35.1757 47.0824 39.85 40.1666 46.0259 35.402C50.6172 31.5759 55.5622 28.8363 55.5622 28.8363C55.5622 28.8363 52.8984 25.743 52.0971 25.512C47.1448 24.1837 36.4534 31.5507 29.6351 41.2892C26.8702 45.2307 22.9178 52.2116 24.8091 55.7994C25.0402 56.247 26.3576 57.3876 27.0687 57.9796ZM67.1644 69.5163C67.1448 69.5516 67.1139 69.5793 67.0766 69.595C67.0766 69.5986 63.0953 71.4467 56.7895 69.4867C56.9627 70.9666 58.4101 71.638 59.0959 71.8979C59.9622 72.2371 60.9151 72.396 60.9151 72.396C68.7406 73.7387 76.0607 69.2629 77.703 68.1367C77.8293 68.0573 77.9051 68.1331 77.8113 68.2847L77.6525 68.5121C75.6311 71.1182 70.2096 74.1285 63.1603 74.1213C60.0813 74.1213 57.0096 73.0385 55.8799 71.3745C54.1292 68.7937 55.786 65.0253 58.7097 65.4152L59.9875 65.5595C63.6331 65.9674 68.9138 65.4549 73.2669 63.4371C77.2446 61.5891 78.7534 59.5533 78.5188 57.9038C78.4495 57.3927 78.2105 56.9198 77.8402 56.561C77.1255 55.8644 75.9849 55.3121 74.0754 54.7815C73.8746 54.723 73.6943 54.6721 73.5267 54.6249C73.167 54.5235 72.8662 54.4387 72.5486 54.3303C71.7329 54.0632 71.325 53.8431 71.2311 52.2982C71.195 51.6268 71.0759 49.2698 71.0326 48.2988C70.9532 46.5915 70.7475 44.2598 69.3037 43.2997C68.9337 43.0599 68.5061 42.924 68.0656 42.9062C67.6723 42.893 67.4576 42.9494 67.3576 42.9756C67.3484 42.978 67.3402 42.9802 67.3329 42.982C66.5471 43.113 66.0673 43.5171 65.4946 43.9995C65.4675 44.0223 65.4402 44.0453 65.4126 44.0685C63.6078 45.57 62.0882 45.8155 60.3918 45.7469C59.8763 45.723 59.3448 45.6709 58.7849 45.616C58.2471 45.5632 57.6831 45.5079 57.0818 45.4726L56.3599 45.4293C53.5229 45.2849 50.48 47.7321 49.9783 51.2117C49.4112 55.0914 51.5551 57.4685 52.9488 59.0138C53.2939 59.3964 53.593 59.7281 53.7936 60.0189C53.9199 60.1994 54.0715 60.4485 54.0715 60.6795C54.0715 60.961 53.8874 61.1848 53.7033 61.3725C50.8121 64.354 49.8881 69.0752 50.9781 73.0168C51.1131 73.5007 51.2844 73.9737 51.4907 74.4317C54.0498 80.4127 61.9908 83.1956 69.7476 80.6654C70.7599 80.3311 71.7426 79.9134 72.6858 79.4165C74.3832 78.5798 75.9116 77.4369 77.1941 76.0452C79.2551 73.8939 80.4751 71.5586 80.9552 68.6782C81.1862 67.1405 80.8469 66.5449 80.3777 66.2562C79.8832 65.953 79.2948 66.0577 79.2948 66.0577C79.2948 66.0577 79.0277 64.2168 78.2625 62.5384C76.0029 64.3215 73.0937 65.574 70.881 66.2129C67.6728 67.1165 64.3362 67.4776 61.009 67.2813C60.5951 67.2471 60.2081 67.1964 59.8493 67.1494C58.3519 66.9534 57.3438 66.8215 56.9158 68.2161C61.8067 70.0029 66.9827 69.2376 66.9827 69.2376C67.0067 69.2346 67.0311 69.2365 67.0544 69.2431C67.0776 69.2497 67.0994 69.2609 67.1182 69.276C67.1371 69.2912 67.1527 69.31 67.1641 69.3313C67.1756 69.3526 67.1826 69.376 67.1849 69.4001C67.1913 69.44 67.1841 69.4809 67.1644 69.5163ZM53.0753 34.6476C50.397 36.012 47.4119 38.4521 44.9863 41.2531C44.8997 41.3505 45.026 41.4913 45.1343 41.4191C47.2242 39.8923 50.0974 38.4773 53.8658 37.5605C58.0817 36.5318 62.1352 36.9649 64.6185 37.5316C64.7376 37.5605 64.817 37.3476 64.7087 37.2826C63.0736 36.3622 60.5578 35.7413 58.7747 35.7305C58.6845 35.7305 58.6375 35.6258 58.6881 35.5536C59.0097 35.1315 59.386 34.7541 59.807 34.4311C59.8283 34.4178 59.8443 34.3975 59.8523 34.3737C59.8602 34.3499 59.8597 34.3241 59.8508 34.3006C59.8418 34.2772 59.825 34.2576 59.8032 34.2452C59.7814 34.2327 59.7559 34.2283 59.7312 34.2325C57.1901 34.3841 54.2953 35.6006 52.6277 36.7339C52.5447 36.7953 52.44 36.7159 52.4617 36.6184C52.6316 35.9773 52.8839 35.361 53.2124 34.7848C53.263 34.7018 53.1655 34.5971 53.0753 34.6476ZM69.4109 53.7165C68.9922 53.6515 68.541 53.6587 68.0645 53.7165C67.7072 53.2509 67.3823 52.5073 67.2019 51.641C66.8734 50.0925 66.9095 48.9736 67.8155 48.8292C68.7179 48.6776 69.1546 49.6125 69.4795 51.1609C69.6924 52.2041 69.6491 53.1606 69.4109 53.7165ZM60.404 54.9819C60.3725 54.9683 60.3404 54.9543 60.3077 54.9401C59.658 54.6514 58.8242 54.3337 57.8063 54.4059C56.9299 54.4586 56.1257 54.7132 55.5498 54.8954C55.1793 55.0127 54.9034 55.1 54.7635 55.0845C54.6119 55.0556 54.5541 54.987 54.5288 54.904C54.4783 54.6369 54.8862 54.2002 55.3157 53.8825C55.9469 53.4211 56.6864 53.1302 57.4629 53.0378C58.2393 52.9455 59.0264 53.0549 59.7482 53.3555C60.4238 53.6314 61.0053 54.0964 61.423 54.6947C61.5782 54.9473 61.6071 55.1495 61.5024 55.2505C61.3619 55.3979 60.9968 55.2394 60.404 54.9819ZM57.4056 56.355C57.7016 56.0879 58.1672 55.8136 59.0047 55.6801C60.1669 55.5429 61.0151 56.0807 61.2173 56.4092C61.3075 56.55 61.2678 56.633 61.2425 56.6763C61.1487 56.8207 60.9502 56.799 60.5279 56.7485C59.759 56.6618 58.983 56.6149 57.8135 57.03C57.8135 57.03 57.3876 57.1961 57.1963 57.1961L57.0627 57.1455L56.9978 56.9939C56.9978 56.8171 57.1494 56.5788 57.4056 56.355ZM66.8517 58.1598C66.646 58.5749 66.0179 58.6904 65.444 58.4089C64.8773 58.1273 64.5777 57.5534 64.7835 57.1383C64.9892 56.7232 65.6209 56.6149 66.1912 56.9001C66.7651 57.178 67.0647 57.7447 66.8517 58.1598ZM68.2594 56.3334C68.2739 55.6909 68.6565 55.1856 69.1185 55.1928C69.5877 55.2036 69.9559 55.7234 69.9451 56.3587C69.9343 56.9939 69.5517 57.5029 69.086 57.4957C68.6204 57.492 68.2486 56.9723 68.2594 56.3334ZM37.427 66.6277C37.611 66.5772 37.8023 66.5375 37.9178 66.6819C37.9576 66.7252 38.0225 66.8371 37.9467 67.0284C37.8132 67.3352 37.2934 67.7503 36.5498 67.725C35.7918 67.6564 34.9328 67.1006 34.8173 65.7181C34.7631 65.0359 35.0194 64.2057 35.1782 63.769C35.485 62.928 35.2143 62.0472 34.4924 61.5744C34.0774 61.303 33.5716 61.2076 33.0863 61.3092C32.6009 61.4107 32.1758 61.7009 31.9044 62.1158C31.6875 62.45 31.5547 62.8752 31.4818 63.1087L31.4785 63.1193L31.4279 63.2564C31.2655 63.6932 31.0092 63.8231 30.836 63.7979C30.7566 63.787 30.6411 63.7329 30.5653 63.5308C30.3703 62.9821 30.5256 61.4372 31.5507 60.3075C31.8869 59.9467 32.3042 59.6711 32.768 59.5036C33.2319 59.336 33.7289 59.2812 34.2181 59.3437C34.7355 59.4155 35.2272 59.6138 35.6497 59.9211C36.0722 60.2283 36.4123 60.635 36.6401 61.1052C37.3367 62.4371 36.7195 63.8376 36.3441 64.6714L36.2358 64.9204C35.9976 65.4727 35.9868 65.96 36.1997 66.2848C36.2901 66.4114 36.41 66.5141 36.549 66.5839C36.688 66.6537 36.8419 66.6886 36.9974 66.6855C37.1281 66.6885 37.251 66.6634 37.3642 66.6403C37.3854 66.636 37.4064 66.6317 37.427 66.6277Z" fill="black"></path></svg>