<svg xmlns="http://www.w3.org/2000/svg" width="110" height="110" viewBox="0 0 110 110" fill="none"><circle cx="55" cy="55" r="55" fill="white"></circle><path d="M50.206 25.0001C39.636 25.028 26.8578 37.2993 27.0012 50.2585C26.9777 63.0505 37.1411 74.334 52.3949 75.0111C61.0542 75.3904 64.2316 71.015 67.8648 71.9813C71.498 72.9477 71.8745 76.1489 71.6905 78.5916C71.6875 79.2784 71.5444 79.9572 71.27 80.5866C70.9956 81.216 70.5957 81.7826 70.0948 82.2517C69.5939 82.7208 69.0027 83.0825 68.3572 83.3145C67.7118 83.5466 67.0258 83.6442 66.3413 83.6013C64.2273 82.5299 65.5047 76.7446 62.2631 76.4017C60.239 76.616 59.336 78.3945 59.7832 80.5715C60.2304 82.7485 63.027 84.8312 67.0218 84.9962C67.8726 85.0261 68.7204 84.8797 69.5121 84.5661C70.3037 84.2525 71.0221 83.7784 71.6222 83.1736C72.2223 82.5689 72.6911 81.8465 72.9993 81.0517C73.3074 80.257 73.4483 79.407 73.413 78.5552C73.5574 76.7691 73.0159 74.9952 71.899 73.5952C70.7821 72.1953 69.174 71.2747 67.4026 71.0214C63.3094 70.64 58.1228 75.6047 50.3772 74.1776C45.0291 73.2587 40.1935 70.4336 36.7627 66.2236C33.3318 62.0137 31.5374 56.7031 31.7106 51.272C31.7748 36.4872 45.4666 29.3006 54.0746 29.3798C62.6825 29.4591 67.2207 32.3796 68.5366 37.2929C69.8525 42.2061 64.191 47.1837 61.6405 50.0913C59.09 52.999 57.742 54.9467 58.2769 58.3429C58.8139 61.9063 62.9029 67.1281 67.1908 67.1002C71.4787 67.0724 77.7159 62.2684 77.2815 50.6013C77.2631 46.7418 76.3768 42.9361 74.6884 39.4666C73 35.9972 70.553 32.9531 67.5289 30.5605C64.4606 28.1199 60.7803 24.9766 50.206 25.0001Z" fill="url(#paint0_linear_815_12091)"></path><defs><linearGradient id="paint0_linear_815_12091" x1="63.9877" y1="69.4958" x2="71.5156" y2="81.6933" gradientUnits="userSpaceOnUse"><stop stop-color="#33879E"></stop><stop offset="0.047" stop-color="#537983"></stop><stop offset="0.105" stop-color="#726C68"></stop><stop offset="0.17" stop-color="#8E6051"></stop><stop offset="0.244" stop-color="#A4573F"></stop><stop offset="0.33" stop-color="#B55030"></stop><stop offset="0.436" stop-color="#C04B26"></stop><stop offset="0.585" stop-color="#C74821"></stop><stop offset="1" stop-color="#C9471F"></stop></linearGradient></defs></svg>